<svg width="24" height="24" viewBox="0 0 24 24" fill="none" xmlns="http://www.w3.org/2000/svg">
<path d="M21 1.5C21.8284 1.5 22.5 2.17157 22.5 3V15C22.5 15.8284 21.8284 16.5 21 16.5H17.25C16.3057 16.5 15.4166 16.9446 14.85 17.7L12 21.5L9.15 17.7C8.58344 16.9446 7.69427 16.5 6.75 16.5H3C2.17157 16.5 1.5 15.8284 1.5 15V3C1.5 2.17157 2.17157 1.5 3 1.5H21ZM3 0C1.34315 0 0 1.34315 0 3V15C0 16.6569 1.34315 18 3 18H6.75C7.22214 18 7.66672 18.2223 7.95 18.6L10.8 22.4C11.4 23.2 12.6 23.2 13.2 22.4L16.05 18.6C16.3333 18.2223 16.7779 18 17.25 18H21C22.6569 18 24 16.6569 24 15V3C24 1.34315 22.6569 0 21 0H3Z" fill="#26252B"/>
<path d="M4.5 5.25C4.5 4.83579 4.83579 4.5 5.25 4.5H18.75C19.1642 4.5 19.5 4.83579 19.5 5.25C19.5 5.66421 19.1642 6 18.75 6H5.25C4.83579 6 4.5 5.66421 4.5 5.25ZM4.5 9C4.5 8.58579 4.83579 8.25 5.25 8.25H18.75C19.1642 8.25 19.5 8.58579 19.5 9C19.5 9.41421 19.1642 9.75 18.75 9.75H5.25C4.83579 9.75 4.5 9.41421 4.5 9ZM4.5 12.75C4.5 12.3358 4.83579 12 5.25 12H12.75C13.1642 12 13.5 12.3358 13.5 12.75C13.5 13.1642 13.1642 13.5 12.75 13.5H5.25C4.83579 13.5 4.5 13.1642 4.5 12.75Z" fill="#26252B"/>
</svg>
