<svg width="24" height="24" viewBox="0 0 24 24" fill="none" xmlns="http://www.w3.org/2000/svg">
<path d="M13.076 4.08762C13.4952 3.84984 13.8239 3.47997 14.0107 3.03574C14.1976 2.59151 14.2321 2.09791 14.1089 1.63199C13.9857 1.16607 13.7118 0.754042 13.3298 0.460223C12.9477 0.166404 12.4792 0.00732435 11.9973 0.00781363C11.5153 0.0083029 11.0471 0.168334 10.6657 0.462928C10.2843 0.757522 10.0112 1.1701 9.88893 1.63627C9.76668 2.10244 9.80221 2.59597 9.98997 3.03982C10.1777 3.48367 10.5072 3.85287 10.9268 4.0898L10.9159 4.10944C10.2013 5.60079 9.20855 7.7369 7.67574 8.53876C6.41676 9.19662 4.61012 8.86605 3.26823 8.6195C3.24671 8.31436 3.14009 8.02137 2.96048 7.77377C2.78087 7.52617 2.53545 7.33386 2.25208 7.21867C1.96871 7.10348 1.65872 7.07002 1.3573 7.12209C1.05587 7.17415 0.775072 7.30966 0.54676 7.51323C0.318449 7.71681 0.151765 7.9803 0.0656215 8.27381C-0.020522 8.56732 -0.0226763 8.87909 0.0594031 9.17376C0.141482 9.46844 0.304509 9.7342 0.529986 9.94091C0.755463 10.1476 1.03436 10.287 1.33504 10.3432L4.55121 18.6455C4.78972 19.261 5.20877 19.79 5.75334 20.163C6.29791 20.536 6.94256 20.7357 7.60265 20.7358H16.3958C17.0559 20.7357 17.7006 20.536 18.2451 20.163C18.7897 19.79 19.2088 19.261 19.4473 18.6455L22.6624 10.3432C22.9611 10.2876 23.2385 10.1499 23.4635 9.94552C23.6884 9.74114 23.8519 9.47816 23.9358 9.18605C24.0197 8.89394 24.0206 8.58424 23.9384 8.29166C23.8561 7.99908 23.6941 7.73518 23.4703 7.52953C23.2465 7.32387 22.9699 7.18459 22.6715 7.12729C22.373 7.07 22.0645 7.09694 21.7805 7.20512C21.4965 7.31329 21.2482 7.49842 21.0635 7.73975C20.8787 7.98108 20.7649 8.26909 20.7346 8.57149C19.3611 8.74932 17.5904 8.97624 16.3227 8.31403C14.8205 7.52853 13.8135 5.5397 13.076 4.08762Z" fill="black"/>
</svg>
